<mxfile host="65bd71144e">
    <diagram id="uTLi6e7lQDuQhqUtnxP_" name="Page-1">
        <mxGraphModel dx="655" dy="448" grid="1" gridSize="10" guides="1" tooltips="1" connect="1" arrows="1" fold="1" page="1" pageScale="1" pageWidth="850" pageHeight="1100" math="0" shadow="0">
            <root>
                <mxCell id="0"/>
                <mxCell id="1" parent="0"/>
                <mxCell id="2" value="" style="whiteSpace=wrap;html=1;aspect=fixed;" vertex="1" parent="1">
                    <mxGeometry x="120" y="170" width="80" height="80" as="geometry"/>
                </mxCell>
                <mxCell id="3" value="" style="curved=1;endArrow=classic;html=1;exitX=1;exitY=0.5;exitDx=0;exitDy=0;entryX=0;entryY=0.5;entryDx=0;entryDy=0;" edge="1" parent="1" source="2" target="4">
                    <mxGeometry width="50" height="50" relative="1" as="geometry">
                        <mxPoint x="230" y="220" as="sourcePoint"/>
                        <mxPoint x="280" y="170" as="targetPoint"/>
                        <Array as="points">
                            <mxPoint x="280" y="250"/>
                            <mxPoint x="400" y="310"/>
                            <mxPoint x="370" y="220"/>
                            <mxPoint x="290" y="230"/>
                            <mxPoint x="330" y="170"/>
                        </Array>
                    </mxGeometry>
                </mxCell>
                <mxCell id="4" value="" style="whiteSpace=wrap;html=1;aspect=fixed;" vertex="1" parent="1">
                    <mxGeometry x="450" y="120" width="80" height="80" as="geometry"/>
                </mxCell>
            </root>
        </mxGraphModel>
    </diagram>
</mxfile>